<?xml version="1.0" encoding="utf-8"?>
<!-- Generator: Adobe Illustrator 24.0.1, SVG Export Plug-In . SVG Version: 6.00 Build 0)  -->
<svg version="1.1" id="Layer_1" xmlns="http://www.w3.org/2000/svg" xmlns:xlink="http://www.w3.org/1999/xlink" x="0px" y="0px"
	 viewBox="0 0 315.34 80.25" style="enable-background:new 0 0 315.34 80.25;" xml:space="preserve">
<style type="text/css">
	.st0{fill:#FFFFFF;}
</style>
<g>
	<g>
		<g>
			<path class="st0" d="M88.72,16.84h10.9v36.93h18.46v8.83H88.72V16.84z"/>
		</g>
		<g>
			<path class="st0" d="M119.92,29.92h10.21V50.5c0,3.61,1.38,5.22,4.01,5.22c3.33,0,5.39-2.64,5.39-7.23V29.92h10.21V62.6h-10.21
				v-5.22c-1.2,3.61-4.42,6.02-9.06,6.02c-6.71,0-10.55-4.19-10.55-12.62V29.92z"/>
		</g>
		<g>
			<path class="st0" d="M167.89,62.6V16.84h17.95c9.98,0,15.02,4.3,15.02,12.5c0,4.82-2.41,7.97-6.42,9.4
				c4.7,1.38,7.68,5.28,7.68,10.44c0,8.89-5.33,13.42-15.54,13.42H167.89z M184.46,25.04h-5.68V35.3h5.68c3.78,0,5.73-1.38,5.73-5.1
				C190.2,26.42,188.25,25.04,184.46,25.04z M185.27,42.94h-6.48V54.4h6.48c4.07,0,5.96-1.72,5.96-5.73
				C191.23,44.6,189.34,42.94,185.27,42.94z"/>
		</g>
		<g>
			<path class="st0" d="M214.74,48.73v0.57c0,4.65,2.06,7,5.45,7c2.64,0,4.24-1.38,4.7-3.73h10.21
				c-1.09,6.82-6.36,10.84-14.91,10.84c-10.9,0-15.71-6.82-15.71-17.15s4.82-17.15,15.71-17.15c10.84,0,15.6,6.82,15.6,17.15
				c0,0.86-0.06,1.89-0.11,2.47C235.68,48.73,214.74,48.73,214.74,48.73z M225.47,42.94c-0.11-4.47-1.95-6.71-5.39-6.71
				c-3.38,0-5.22,2.24-5.33,6.71H225.47z"/>
		</g>
		<g>
			<path class="st0" d="M249.21,63.41c-6.54,0-11.01-3.96-11.01-10.32c0-6.42,4.36-10.38,11.01-10.38c4.19,0,7.63,1.66,8.89,4.59
				v-6.42c0-2.52-1.38-4.36-4.07-4.36c-2.58,0-3.9,1.43-4.13,3.67h-10.15c0.29-6.48,4.99-11.07,14.28-11.07
				c9.35,0,14.28,4.93,14.28,11.76v16.8c0,1.83,0.34,3.84,0.92,4.93h-10.38c-0.4-0.86-0.69-2.29-0.75-3.84
				C256.95,61.4,253.8,63.41,249.21,63.41z M258.1,53.08c0-2.47-1.55-3.84-4.82-3.84c-3.27,0-4.87,1.38-4.87,3.84
				s1.66,3.78,4.87,3.78C256.44,56.87,258.1,55.55,258.1,53.08z"/>
		</g>
		<g>
			<path class="st0" d="M302.55,62.6h-10.21V42.02c0-3.61-1.32-5.22-4.01-5.22c-3.27,0-5.33,2.64-5.33,7.23V62.6h-10.21V29.92H283
				v5.22c1.15-3.61,4.36-6.02,9-6.02c6.77,0,10.55,4.19,10.55,12.62V62.6z"/>
		</g>
	</g>
	<g>
		<g>
			<path class="st0" d="M22.78,47.54l0.2,0.05c1.02-3.83,2.52-7.53,4.3-11.07c1.8-3.54,3.9-6.92,6.37-10.02
				c2.43-3.12,5.22-5.98,8.34-8.42c3.1-2.47,6.58-4.44,10.24-5.98l-0.08-0.19C23.81,18.79,22.78,47.54,22.78,47.54z"/>
		</g>
		<g>
			<path class="st0" d="M68.29,55.47C62.75,62.31,56,67.17,49.32,69.72h15.79c3.79,0,6.88-3.1,6.88-6.88V50.26
				C70.89,52.03,69.66,53.77,68.29,55.47z"/>
		</g>
		<g>
			<path class="st0" d="M29.16,63.22c0.63-1.58,1.41-3.39,2.33-5.11c3.85-7.25,9.02-13.74,14.28-20.04
				c5.22-6.33,10.98-12.23,17.32-17.44c1.64-1.35,3.33-2.65,5.05-3.9c1.1-0.8,2.37-1.13,3.61-1.06c-0.54-2.04-1.98-3.73-3.89-4.56
				c-0.03,0.34-0.19,0.66-0.53,0.88c-6.23,4.14-9.53,6.21-12.43,7.86c-8.68,4.96-17.48,16.12-21.71,24.81
				c-4.46,9.15-5.58,12.4-8.17,15.93c-1.08,1.47-2.89,1.29-3.47,0.1c-4.61-9.59-1.63-24.36,8.3-36.62
				c5.06-6.25,11.14-10.85,17.25-13.54H19.68c-3.79,0-6.88,3.1-6.88,6.88v45.43c0,3.79,3.1,6.88,6.88,6.88h11.17
				C29,68.18,28.22,65.6,29.16,63.22z"/>
		</g>
	</g>
</g>
</svg>
